<svg width="527" height="406" viewBox="0 0 527 406" fill="none" xmlns="http://www.w3.org/2000/svg">
<path d="M41.634 371.738C54.0624 394.787 80.44 404.681 80.44 404.681C80.44 404.681 86.6671 377.206 74.2387 354.157C61.8103 331.108 35.4327 321.214 35.4327 321.214C35.4327 321.214 29.2056 348.689 41.634 371.738Z" fill="#2F2E41"/>
<path d="M50.1765 364.155C72.6149 377.655 81.2567 404.469 81.2567 404.469C81.2567 404.469 53.5186 409.396 31.0802 395.896C8.64174 382.396 0 355.582 0 355.582C0 355.582 27.7381 350.655 50.1765 364.155Z" fill="#1A1A1A"/>
<path d="M362.06 361.184H125.274V359.481H360.356V276.861H145.18L134.727 255.084L136.263 254.347L146.252 275.157H362.06V361.184Z" fill="#2F2E41"/>
<path d="M156.788 402.92C166.667 402.92 174.675 394.912 174.675 385.033C174.675 375.154 166.667 367.146 156.788 367.146C146.91 367.146 138.902 375.154 138.902 385.033C138.902 394.912 146.91 402.92 156.788 402.92Z" fill="#3F3D56"/>
<path d="M333.101 402.92C342.979 402.92 350.987 394.912 350.987 385.033C350.987 375.154 342.979 367.146 333.101 367.146C323.222 367.146 315.214 375.154 315.214 385.033C315.214 394.912 323.222 402.92 333.101 402.92Z" fill="#3F3D56"/>
<path d="M387.385 248.753H121.237L63.6484 60.5167H446.693L446.344 61.6242L387.385 248.753ZM122.497 247.05H386.136L444.37 62.2202H65.9508L122.497 247.05Z" fill="#2F2E41"/>
<path d="M366.61 238.958H132.842L82.26 72.015H418.701L418.395 72.998L366.61 238.958Z" fill="#F2F2F2"/>
<path d="M451.465 43.7L449.818 43.263L461.059 0.894012H526.448V2.59799H462.37L451.465 43.7Z" fill="#2F2E41"/>
<path d="M427.552 117.584H82.2584V119.287H427.552V117.584Z" fill="#2F2E41"/>
<path d="M407.778 180.344H101.459V182.047H407.778V180.344Z" fill="#2F2E41"/>
<path d="M256.017 61.3684H254.314V247.901H256.017V61.3684Z" fill="#2F2E41"/>
<path d="M332.286 61.315L320.057 247.843L321.758 247.955L333.986 61.4264L332.286 61.315Z" fill="#2F2E41"/>
<path d="M178.081 61.313L176.38 61.4238L188.538 247.957L190.238 247.846L178.081 61.313Z" fill="#2F2E41"/>
<path d="M464 404H0V406H464V404Z" fill="#2F2E41"/>
</svg>
